<svg xmlns="http://www.w3.org/2000/svg" viewBox="0 0 200 200">
  <!-- 背景 -->
  <circle cx="100" cy="100" r="95" fill="#E8F5E9"/>

  <!-- 身体 -->
  <ellipse cx="100" cy="130" rx="45" ry="50" fill="#FAFAFA"/>

  <!-- 左耳 -->
  <ellipse cx="70" cy="45" rx="15" ry="35" fill="#FAFAFA"/>
  <ellipse cx="70" cy="45" rx="8" ry="25" fill="#FFCDD2"/>

  <!-- 右耳 -->
  <ellipse cx="130" cy="45" rx="15" ry="35" fill="#FAFAFA"/>
  <ellipse cx="130" cy="45" rx="8" ry="25" fill="#FFCDD2"/>

  <!-- 头部 -->
  <circle cx="100" cy="95" r="40" fill="#FAFAFA"/>

  <!-- 腮红 -->
  <ellipse cx="65" cy="105" rx="12" ry="8" fill="#FFCDD2" opacity="0.6"/>
  <ellipse cx="135" cy="105" rx="12" ry="8" fill="#FFCDD2" opacity="0.6"/>

  <!-- 眼睛 -->
  <circle cx="82" cy="90" r="8" fill="#424242"/>
  <circle cx="118" cy="90" r="8" fill="#424242"/>
  <circle cx="84" cy="87" r="3" fill="#FAFAFA"/>
  <circle cx="120" cy="87" r="3" fill="#FAFAFA"/>

  <!-- 鼻子 -->
  <ellipse cx="100" cy="105" rx="5" ry="4" fill="#FFCDD2"/>

  <!-- 嘴巴 -->
  <path d="M 95 112 Q 100 118 105 112" stroke="#BDBDBD" stroke-width="2" fill="none"/>

  <!-- 胡须 -->
  <line x1="60" y1="100" x2="78" y2="103" stroke="#BDBDBD" stroke-width="1.5"/>
  <line x1="60" y1="108" x2="78" y2="108" stroke="#BDBDBD" stroke-width="1.5"/>
  <line x1="122" y1="103" x2="140" y2="100" stroke="#BDBDBD" stroke-width="1.5"/>
  <line x1="122" y1="108" x2="140" y2="108" stroke="#BDBDBD" stroke-width="1.5"/>

  <!-- 小花装饰 -->
  <circle cx="145" cy="70" r="8" fill="#FFB6C1"/>
  <circle cx="138" cy="63" r="5" fill="#FFB6C1"/>
  <circle cx="152" cy="63" r="5" fill="#FFB6C1"/>
  <circle cx="145" cy="70" r="4" fill="#FFF59D"/>
</svg>